<?xml version="1.0" encoding="UTF-8" standalone="no"?>
<!-- Created with Inkscape (http://www.inkscape.org/) -->

<svg
   xmlns:dc="http://purl.org/dc/elements/1.1/"
   xmlns:cc="http://creativecommons.org/ns#"
   xmlns:rdf="http://www.w3.org/1999/02/22-rdf-syntax-ns#"
   xmlns:svg="http://www.w3.org/2000/svg"
   xmlns="http://www.w3.org/2000/svg"
   xmlns:sodipodi="http://sodipodi.sourceforge.net/DTD/sodipodi-0.dtd"
   xmlns:inkscape="http://www.inkscape.org/namespaces/inkscape"
   id="svg3390"
   version="1.1"
   inkscape:version="0.91 r13725"
   width="87.761955"
   height="18.932076"
   viewBox="0 0 87.761955 18.932076"
   sodipodi:docname="meta.svg">
  <metadata
     id="metadata3396">
    <rdf:RDF>
      <cc:Work
         rdf:about="">
        <dc:format>image/svg+xml</dc:format>
        <dc:type
           rdf:resource="http://purl.org/dc/dcmitype/StillImage" />
        <dc:title></dc:title>
      </cc:Work>
    </rdf:RDF>
  </metadata>
  <defs
     id="defs3394" />
  <sodipodi:namedview
     pagecolor="#ffffff"
     bordercolor="#666666"
     borderopacity="1"
     objecttolerance="10"
     gridtolerance="10"
     guidetolerance="10"
     inkscape:pageopacity="0"
     inkscape:pageshadow="2"
     inkscape:window-width="1444"
     inkscape:window-height="811"
     id="namedview3392"
     showgrid="false"
     fit-margin-top="0"
     fit-margin-left="0"
     fit-margin-right="0"
     fit-margin-bottom="0"
     inkscape:zoom="14.837607"
     inkscape:cx="45.282899"
     inkscape:cy="5.343276"
     inkscape:window-x="0"
     inkscape:window-y="0"
     inkscape:window-maximized="0"
     inkscape:current-layer="svg3390" />
  <g
     id="g3400"
     transform="translate(-0.00742339,0.01898374)">
    <path
       style="fill:#d6e5ea"
       d="M 12.6,18.534064 C 10.665053,17.525119 0.48777618,11.634995 0.2625,11.393704 -0.30624187,10.784532 0.01502405,10.410034 2.1790967,9.1595394 3.0018435,8.6841205 5.3625,7.2974028 7.425,6.0779445 12.751895,2.9284046 13.262893,2.6788512 13.004073,3.3533268 12.958429,3.4722728 10.887234,5.2105938 8.4014163,7.2162627 L 3.8817486,10.862933 4.4533743,11.337654 C 5.8995781,12.53869 12.924436,18 13.02312,18 13.08409,18 13.862574,14.810625 14.753091,10.9125 16.777596,2.0504842 16.609702,2.625 17.175,2.625 c 0.433801,0 0.547194,0.1712918 3.15,4.7583745 1.485,2.6171065 2.736144,4.7602315 2.780319,4.7625005 0.04417,0.0023 1.288318,-2.10525 2.764762,-4.683375 1.476444,-2.578125 2.756552,-4.7370913 2.844681,-4.797703 0.281442,-0.193562 0.670287,-0.123049 0.814509,0.147703 0.222486,0.4176767 3.638732,15.362401 3.589842,15.70414 -0.04161,0.29087 -0.156417,0.310731 -2.024034,0.35016 -1.771639,0.0374 -1.994295,0.01374 -2.116557,-0.225 -0.07515,-0.14674 -0.427461,-1.566175 -0.782911,-3.1543 C 27.84016,13.899375 27.495926,12.6 27.430644,12.6 c -0.06528,0 -0.948257,1.391418 -1.962168,3.09204 -1.013912,1.700622 -1.928003,3.125403 -2.031312,3.166177 -0.575337,0.227079 -0.881841,-0.138679 -2.730408,-3.258262 -1.128051,-1.903661 -1.908896,-3.07794 -1.970847,-2.963871 -0.05643,0.103904 -0.389829,1.471416 -0.740885,3.038916 -0.351055,1.5675 -0.704314,2.934375 -0.78502,3.0375 -0.104133,0.13306 -0.69669,0.185472 -2.04087,0.180516 -1.687667,-0.0062 -1.967711,-0.04535 -2.569134,-0.358952 z m 23.051988,0.267924 C 35.595895,18.745894 35.55,15.168786 35.55,10.852858 l 0,-7.8471424 0.3375,-0.082306 c 0.185625,-0.045268 2.46375,-0.063429 5.0625,-0.040358 l 4.725,0.041948 0,1.725 0,1.725 -2.8875,0.040739 -2.8875,0.040739 -0.02113,0.559261 C 39.867243,7.3233325 39.852856,7.87875 39.846897,8.25 l -0.01083,0.675 2.919471,0.083212 c 1.605708,0.045766 2.938555,0.096391 2.961882,0.1125 0.02333,0.016109 0.02333,0.7886634 0,1.716788 L 45.675,12.525 42.871737,12.60326 c -1.541795,0.04304 -2.841978,0.116978 -2.889297,0.164297 -0.105672,0.105672 -0.153053,0.870685 -0.112716,1.81994 L 39.9,15.3 l 2.7375,0.0023 c 1.505625,0.0012 2.824275,0.05735 2.930333,0.124648 0.142383,0.09034 0.181626,0.550836 0.149999,1.760204 L 45.675,18.825 40.714488,18.86449 c -2.728281,0.02172 -5.006406,-0.0064 -5.0625,-0.0625 z m 15.64596,-0.282385 C 51.209889,18.287989 51.15,15.768567 51.15,12.295667 l 0,-5.8348034 L 49.6875,6.4179318 48.225,6.375 l 0,-1.725 0,-1.725 5.007165,-0.039547 c 3.570243,-0.028198 5.066089,0.00936 5.2125,0.1308668 C 58.714353,3.2401413 58.735875,6.0041251 58.47,6.27 58.355838,6.3841627 57.78037,6.45 56.896664,6.45 l -1.393335,0 -0.03917,6.1875 -0.03916,6.1875 -1.989552,0.04187 -1.989552,0.04187 -0.147948,-0.389133 z m 7.756315,0.284659 C 58.996918,18.746919 58.95,18.611692 58.95,18.503761 58.95,18.339889 63.825735,7.88103 65.792979,3.825 c 0.822671,-1.6961658 0.95226,-1.6588441 2.08335,0.6 0.495731,0.99 1.80691,3.72375 2.913732,6.075 3.232719,6.867351 3.610178,7.65 3.689456,7.65 0.04134,0 0.563479,-0.394557 1.160319,-0.876794 0.596841,-0.482236 2.232664,-1.777631 3.635164,-2.878657 4.094161,-3.214097 4.273881,-3.362096 4.273881,-3.519549 0,-0.0825 -0.42048,-0.4875 -0.934398,-0.9 C 77.427648,5.811756 74.66296,3.5280147 74.594818,3.3504392 74.35647,2.7293124 74.898415,2.9677496 78.33571,4.9963006 c 1.17661,0.694387 3.65804,2.1555205 5.51429,3.2469635 1.85625,1.0914431 3.501328,2.1191919 3.655731,2.2838849 0.451198,0.481274 0.109971,0.844652 -1.826195,1.944748 C 84.714541,13.02019 82.17,14.476416 80.025,15.707954 c -6.134093,3.521848 -5.375622,3.208827 -7.655076,3.159254 l -1.940828,-0.04221 -0.496152,-1.015859 -0.496152,-1.015858 -2.728861,0.04086 -2.72886,0.04086 -0.528956,0.975 -0.528954,0.975 -1.881318,0.04176 c -1.034724,0.02297 -1.928236,-0.0052 -1.98558,-0.0625 z M 67.8,13.121255 c 0,-0.04331 -0.241633,-0.558565 -0.536964,-1.145012 l -0.536964,-1.066267 -0.280593,0.461399 C 66.094475,11.948555 65.55,13.011172 65.55,13.119024 c 0,0.04454 0.50625,0.08098 1.125,0.08098 0.61875,0 1.125,-0.03543 1.125,-0.07874 z M 83.783673,5.9261817 C 82.879278,5.6040055 82.463236,5.2344579 82.0125,4.3529416 81.566493,3.4806738 81.502372,2.8356569 81.772158,1.9351959 82.161753,0.63483977 83.158437,0.0045169 84.825,0.0045169 c 1.416492,0 2.625,0.55700903 2.625,1.2098787 0,0.1473446 0.0675,0.3096165 0.15,0.3606044 0.222072,0.1372485 0.177637,2.1576051 -0.06264,2.8480429 -0.475016,1.3649637 -2.20118,2.0561943 -3.753687,1.5031388 z M 85.370637,4.6125 C 85.199669,4.426875 84.92483,4.10625 84.759883,3.9 l -0.299902,-0.375 -0.005,0.4786474 C 84.452245,4.2669036 84.3825,4.5240121 84.3,4.575 83.946503,4.7934736 84.203515,4.95 84.915744,4.95 l 0.765744,0 -0.310851,-0.3375 z M 83.24523,2.8875 C 83.24091,1.7007169 83.219364,1.6028895 83.02023,1.8661695 82.899104,2.0263127 82.8,2.4437934 82.8,2.7939045 82.8,3.4080843 83.009111,4.2 83.171287,4.2 c 0.04329,0 0.07657,-0.590625 0.07394,-1.3125 z m 3.691674,0.3267975 C 86.998107,2.8880609 86.927424,2.5041872 86.719661,2.0345097 86.467688,1.4648823 86.285118,1.282313 85.71549,1.0303397 85.185235,0.79578276 84.888865,0.75051801 84.472143,0.84044241 c -0.54123,0.11679156 -0.537986,0.11897312 0.300226,0.20187139 0.526931,0.052113 0.966539,0.1916502 1.162501,0.3689932 0.368476,0.3334662 0.417913,1.075198 0.101749,1.5265855 -0.189086,0.2699562 -0.177558,0.3612228 0.101231,0.8015397 0.292075,0.4613017 0.328712,0.4776104 0.511472,0.2276717 0.108275,-0.1480731 0.237686,-0.486836 0.287582,-0.7528064 z M 84.9,2.25 c 0,-0.0825 -0.10125,-0.15 -0.225,-0.15 -0.12375,0 -0.225,0.0675 -0.225,0.15 0,0.0825 0.10125,0.15 0.225,0.15 0.12375,0 0.225,-0.0675 0.225,-0.15 z"
       id="path3414"
       inkscape:connector-curvature="0" />
    <path
       style="fill:#b2c9d5"
       d="m 13.198335,18.5625 c -0.0045,-0.509292 3.51225,-15.5151939 3.677197,-15.6904169 0.106869,-0.1135277 0.314021,-0.1611973 0.470241,-0.1082118 0.168842,0.057266 1.336286,1.964349 2.953139,4.824113 1.530768,2.7075057 2.749191,4.7045097 2.85,4.6711687 0.09685,-0.03203 1.369545,-2.14532 2.828214,-4.6961961 1.458669,-2.5508763 2.756776,-4.7043127 2.884684,-4.7854142 0.164375,-0.1042235 0.296384,-0.082234 0.45024,0.075 C 29.51865,3.0636784 33,17.777113 33,18.439146 33,18.737593 32.922577,18.75 31.060108,18.75 c -1.717573,0 -1.9489,-0.03008 -2.018493,-0.2625 -0.04323,-0.144375 -0.384544,-1.60614 -0.758475,-3.248367 -0.37393,-1.642226 -0.711615,-3.017608 -0.75041,-3.056404 -0.0388,-0.0388 -0.206756,0.157344 -0.373244,0.435866 -2.517357,4.211379 -3.576503,5.90172 -3.776598,6.027256 -0.133161,0.08354 -0.339288,0.114602 -0.45806,0.06903 -0.118771,-0.04558 -1.087993,-1.539771 -2.153827,-3.320433 -1.065834,-1.78066 -1.988873,-3.186572 -2.051198,-3.124248 -0.06232,0.06232 -0.413851,1.427652 -0.781171,3.034061 -0.36732,1.606408 -0.713501,3.038868 -0.769292,3.183243 -0.08933,0.231181 -0.332173,0.2625 -2.035388,0.2625 -1.446273,0 -1.934372,-0.04728 -1.935617,-0.1875 z m 22.57044,0 c -0.0395,-0.103125 -0.05425,-3.63 -0.03279,-7.8375 l 0.03902,-7.65 4.8,-0.039812 C 46.147151,2.9889726 45.75,2.8678442 45.75,4.6135306 45.75,6.3878614 45.914383,6.3 42.594723,6.3 l -2.844723,0 0,1.425 0,1.425 2.844723,0 C 45.928431,9.15 45.75,9.0493736 45.75,10.929425 45.75,12.655794 45.858066,12.6 42.514285,12.6 l -2.764285,0 0,1.425 0,1.425 2.844723,0 c 2.658975,0 2.854861,0.01895 3,0.290139 0.167496,0.31297 0.208579,2.120677 0.06073,2.672361 l -0.09045,0.3375 -4.862214,0 c -3.751472,0 -4.878617,-0.04283 -4.934022,-0.1875 z M 51.392718,18.51708 C 51.341722,18.384192 51.3,15.580985 51.3,12.287732 L 51.3,6.3 49.880277,6.3 C 48.184125,6.3 48.15,6.266739 48.15,4.6135306 48.15,2.865211 47.732026,2.9890959 53.475,3.0352332 l 4.95,0.039767 0,1.575 0,1.575 -1.5,0.075 -1.5,0.075 -0.075,6.1499998 -0.075,6.15 -1.894782,0.04185 c -1.628724,0.03597 -1.907802,0.0079 -1.9875,-0.199769 z M 59.1,18.52508 c 0,-0.384742 7.262703,-15.6630678 7.487583,-15.7513986 0.116921,-0.045925 0.270468,-0.025614 0.341218,0.045136 C 67.096849,2.9868495 74.4,18.428457 74.4,18.615726 c 0,0.08568 -0.767688,0.126369 -1.910582,0.101256 L 70.578839,18.675 70.049907,17.7 69.520976,16.725 66.972987,16.682223 c -1.401393,-0.02353 -2.684052,-0.0093 -2.850352,0.03154 -0.189555,0.04659 -0.482846,0.440307 -0.786101,1.055277 L 62.8528,18.75 l -1.876399,0 C 59.408729,18.75 59.1,18.71299 59.1,18.525064 Z m 8.974999,-5.311849 c -0.221961,-0.607221 -1.279995,-2.400058 -1.39465,-2.363236 -0.174434,0.05602 -1.274729,2.04695 -1.278023,2.312521 -0.0017,0.136409 0.368933,0.1875 1.360173,0.1875 0.757133,0 1.340285,-0.06077 1.3125,-0.136785 z M 11.925,17.997004 C 10.225835,17.139609 0.22577965,11.290401 0.09675233,11.078455 -0.01118622,10.901149 0.00878716,10.769784 0.16787209,10.610699 0.37117758,10.407394 10.776691,4.2300295 11.855969,3.6719133 12.379192,3.4013444 12.593619,3.4712106 12.305494,3.8183806 12.202502,3.9424773 10.961009,4.9729893 9.5466185,6.1084071 4.2551183,10.356219 3.727223,10.816816 3.9048957,11.030899 c 0.091124,0.109798 1.9666755,1.614777 4.1678922,3.344398 4.7301421,3.716741 5.5290291,4.467826 3.8522121,3.621707 z m 63.225,-0.06607 c 0.20625,-0.223479 2.0625,-1.728224 4.125,-3.343875 4.160363,-3.259005 4.597534,-3.629247 4.490265,-3.802814 C 83.724527,10.718333 81.853801,9.1835109 79.608097,7.3735317 77.362393,5.5635525 75.396414,3.9403119 75.239251,3.7663302 74.898169,3.3887434 75.126493,3.352572 75.76542,3.6829737 c 1.188421,0.6145567 11.494947,6.7328353 11.744104,6.9716703 0.243254,0.233177 0.254132,0.302608 0.075,0.478677 C 87.29146,11.421373 75.609022,18.081588 75.15,18.222304 l -0.375,0.114959 0.375,-0.406326 z M 83.625,5.7156205 C 82.145232,5.0305105 81.419639,3.4187658 81.922943,1.9348834 82.369917,0.61707798 83.289749,0.00886531 84.844182,0.0032943 86.815588,-0.00377113 87.75,0.92779786 87.75,2.9002745 87.75,4.2577607 87.316696,5.0437718 86.270371,5.5843177 85.320734,6.0749139 84.490088,6.1161429 83.625,5.7156205 Z M 86.06385,4.7759889 C 86.775402,4.3362259 87.210291,3.3507795 87.067028,2.5028144 86.921978,1.6442643 86.101077,0.82723601 85.2368,0.68121717 84.431195,0.54511121 83.358309,1.0220486 82.927071,1.7079764 82.541571,2.3211554 82.601936,3.7320635 83.034165,4.2110646 83.324258,4.532548 83.325192,4.5292092 83.4,2.9041857 L 83.475,1.275 84.427318,1.2299578 C 85.616714,1.1737024 86.1,1.4335045 86.1,2.1291468 c 0,0.2597271 -0.112926,0.5970124 -0.250945,0.749523 -0.23551,0.2602347 -0.230329,0.3139779 0.08424,0.8736796 0.184353,0.3280133 0.293295,0.6641718 0.242093,0.7470191 C 85.970208,4.8313608 85.490815,4.6296901 85.107195,4.05 84.625533,3.3221585 84.335332,3.28188 84.272004,3.9340794 c -0.03206,0.3301716 -0.15918,0.5396844 -0.399827,0.6589714 -0.332937,0.1650341 -0.337164,0.183993 -0.075,0.3363593 0.487353,0.2832437 1.692072,0.2017015 2.266673,-0.1534212 z M 85.135365,2.3832296 C 85.257912,2.184944 84.918024,1.9341129 84.601722,1.9894106 84.47892,2.0108795 84.355845,2.1457949 84.328224,2.2892226 84.291273,2.4810969 84.377653,2.55 84.655149,2.55 c 0.20743,0 0.423528,-0.075047 0.480216,-0.1667705 z"
       id="path3412"
       inkscape:connector-curvature="0" />
    <path
       style="fill:#99b5c8"
       d="m 13.397196,18.506632 c -0.05136,-0.133851 0.02505,-0.758226 0.169797,-1.3875 C 13.711745,16.48986 13.986851,15.3 14.17834,14.475 14.369829,13.65 15.008395,10.84875 15.597375,8.25 16.186356,5.65125 16.732296,3.3685158 16.810575,3.1772575 17.142327,2.3666964 17.466327,2.7904816 20.230153,7.65 c 1.478027,2.59875 2.775891,4.725 2.884145,4.725 0.108253,0 1.414947,-2.12625 2.903763,-4.725 2.164743,-3.7785888 2.774539,-4.7346009 3.044439,-4.7729327 0.185625,-0.026363 0.338676,-0.026363 0.340113,0 0.0015,0.026363 0.804525,3.5241827 1.784637,7.7729327 1.25451,5.43825 1.736731,7.780503 1.629021,7.9125 -0.170984,0.209532 -3.206909,0.268309 -3.521759,0.06818 -0.09927,-0.0631 -0.504268,-1.551104 -0.9,-3.306682 C 27.998781,13.568424 27.6075,12.119207 27.525,12.103521 c -0.0825,-0.01569 -0.971507,1.347985 -1.975569,3.030381 -1.004062,1.682397 -1.965937,3.199272 -2.1375,3.370833 -0.310313,0.310312 -0.313382,0.310396 -0.591481,0.0161 -0.153754,-0.16271 -1.105517,-1.679585 -2.11503,-3.370835 -1.009514,-1.69125 -1.862467,-3.103125 -1.89545,-3.1375 -0.15209,-0.158506 -0.296823,0.335898 -0.966951,3.303049 -0.401177,1.776303 -0.80556,3.231798 -0.917637,3.302841 -0.110211,0.06986 -0.928125,0.12805 -1.817589,0.129313 -1.354771,0.0019 -1.632363,-0.0372 -1.710597,-0.241071 z m 22.469772,0.03881 C 35.744407,18.39777 35.708019,16.239291 35.7361,10.782945 L 35.775,3.225 l 4.875,0 4.875,0 0.04283,1.364712 c 0.03169,1.0097242 -0.01024,1.4087508 -0.16117,1.5340145 -0.130922,0.1086549 -1.194056,0.1839841 -2.967827,0.2102879 L 39.675,6.375 l 0,1.425 0,1.425 2.925,0.075 2.925,0.075 0,1.5 0,1.5 -2.925,0.075 -2.925,0.075 0,1.5 0,1.5 2.925,0.075 2.925,0.075 0.04356,1.327333 c 0.02788,0.849653 -0.01922,1.402968 -0.130868,1.5375 -0.254215,0.306312 -9.316753,0.311625 -9.570721,0.0056 z m 15.77226,0.08197 c -0.141609,-0.08994 -0.195099,-1.560373 -0.225,-6.185203 L 51.375,6.375 50.001346,6.3320544 C 49.068075,6.3028767 48.573225,6.223477 48.457791,6.0843876 48.351442,5.9562462 48.30418,5.3831523 48.331443,4.5523332 L 48.375,3.225 53.314858,3.1854153 c 3.852168,-0.030869 4.966358,0.00216 5.060204,0.15 0.06619,0.1042716 0.121378,0.7078882 0.122641,1.3413703 C 58.500784,6.2219901 58.413874,6.3 56.689285,6.3 l -1.339285,0 0,5.934861 c 0,3.804198 -0.05575,6.039024 -0.155277,6.225 -0.138816,0.259378 -0.325674,0.289896 -1.7625,0.287842 -0.883973,-0.0012 -1.690821,-0.05539 -1.792995,-0.120285 z m 7.661439,-0.111739 C 59.206437,18.27012 59.711773,17.14711 63.785064,8.55 66.645528,2.5126863 66.504112,2.781108 66.770493,2.8833279 67.038582,2.9862033 74.281992,18.300273 74.183707,18.5564 c -0.05441,0.141774 -0.507211,0.192985 -1.6915,0.191304 -0.889464,-0.0012 -1.692876,-0.05189 -1.78536,-0.1125 -0.09248,-0.06061 -0.380331,-0.532079 -0.63966,-1.047704 l -0.471506,-0.9375 -2.905281,0 -2.905279,0 -0.402824,0.8625 c -0.221553,0.474375 -0.512356,0.946875 -0.64623,1.05 -0.158659,0.122219 -0.78343,0.1875 -1.794444,0.1875 -1.26775,0 -1.567462,-0.0428 -1.640956,-0.234321 z M 68.158381,13.37689 C 68.257425,13.216634 66.86745,10.725 66.679006,10.725 c -0.216865,0 -1.458232,2.332482 -1.367376,2.569248 C 65.37041,13.44743 65.734455,13.5 66.73644,13.5 c 0.74022,0 1.380093,-0.0554 1.421941,-0.12311 z M 6.0629814,14.584278 C 2.7711689,12.705632 0.05846243,11.067794 0.03474493,10.944638 0.00528838,10.791683 1.7399365,9.6924015 5.5083111,7.4759295 11.327917,4.0529698 11.985738,3.6857377 12.097484,3.797484 12.163814,3.863813 11.383211,4.513687 5.9605077,8.906693 4.6600369,9.960222 3.6349053,10.885125 3.6824373,10.962034 3.7299693,11.038944 5.6055241,12.54417 7.8503367,14.306985 11.806815,17.413942 12.495875,18 12.192414,18 12.113039,18 9.354794,16.462926 6.0629814,14.584278 Z m 69.3836116,3.199857 c 0.121875,-0.149618 2.058257,-1.714335 4.30307,-3.47715 2.244813,-1.762815 4.120368,-3.268043 4.1679,-3.344951 0.04753,-0.07691 -0.9776,-1.001812 -2.278071,-2.055341 C 76.220257,4.5164973 75.436153,3.863847 75.501919,3.7980803 75.607587,3.6924138 76.611997,4.2331254 79.725,6.07152 c 1.5675,0.9256928 4.018603,2.3731566 5.446897,3.2165864 2.04942,1.2102156 2.562297,1.5751996 2.432775,1.7312646 -0.172149,0.207426 -11.559718,6.737991 -12.079672,6.927472 -0.273947,0.09983 -0.280757,0.0857 -0.07841,-0.162708 z M 83.418199,5.524657 C 82.460163,5.050444 81.9,4.1058915 81.9,2.9646571 81.9,1.1341475 83.038817,0 84.876864,0 c 1.249185,0 2.239293,0.62259573 2.694838,1.6945579 0.390908,0.9198582 0.120737,2.572844 -0.539923,3.3034137 C 86.244894,5.8681245 84.597254,6.1082709 83.4182,5.524657 Z m 2.591186,-0.6146245 c 2.007828,-1.1511034 1.211883,-4.30749603 -1.086716,-4.30947179 -1.214674,-0.001044 -2.105095,0.69500739 -2.357151,1.84260859 -0.421395,1.918598 1.722075,3.4539793 3.443867,2.4668632 z M 83.491048,4.2627319 C 83.440971,4.1322343 83.4,3.5302551 83.4,2.925 c 0,-1.5751243 -9.6e-5,-1.575 1.207542,-1.575 0.889625,0 1.056375,0.044156 1.258953,0.3333759 0.309084,0.4412808 0.294498,0.748627 -0.05672,1.1951308 -0.286692,0.3644694 -0.286703,0.37431 -0.001,0.8077289 C 86.179054,4.2479205 86.176759,4.5 85.801378,4.5 85.625412,4.5 85.363568,4.2857157 85.163878,3.9782931 84.598865,3.1084491 84.15,3.1109105 84.15,3.9838526 84.15,4.3902762 84.089637,4.5 83.866048,4.5 c -0.156174,0 -0.324924,-0.1067706 -0.375,-0.2372681 z M 84.962732,2.6089517 C 85.09323,2.558875 85.2,2.3901251 85.2,2.2339516 85.2,2.0197161 85.091689,1.95 84.758853,1.95 c -0.517706,0 -0.708712,0.223938 -0.4534,0.5315708 0.200379,0.2414412 0.306465,0.2620008 0.657279,0.1273808 z"
       id="path3410"
       inkscape:connector-curvature="0" />
    <path
       style="fill:#88a5b9"
       d="m 13.348605,18.4875 c -0.0043,-0.349812 3.508072,-15.4374173 3.622182,-15.5591286 0.08954,-0.095505 0.217449,-0.095505 0.366858,0 0.126163,0.080646 1.437243,2.2728786 2.91351,4.8716286 1.476267,2.59875 2.763549,4.725 2.860624,4.725 0.09708,0 1.413387,-2.16 2.925137,-4.8 C 28.545102,3.344901 29.067238,2.5829324 29.301148,2.9614083 29.41092,3.1390206 32.85,18.068245 32.85,18.367152 c 0,0.211839 -0.228417,0.23682 -1.828368,0.199965 l -1.82837,-0.04212 -0.182815,-0.75 c -0.100548,-0.4125 -0.436455,-1.883423 -0.746462,-3.268717 -0.411156,-1.8373 -0.618666,-2.506889 -0.767014,-2.475 -0.111854,0.02404 -1.070223,1.494967 -2.129711,3.268717 -1.347997,2.256762 -2.015038,3.238405 -2.221773,3.269653 -0.240324,0.03632 -0.666145,-0.573835 -2.282725,-3.270911 -1.102784,-1.839864 -2.065287,-3.289743 -2.162528,-3.25755 -0.09638,0.03191 -0.48463,1.409 -0.86278,3.060204 -0.37815,1.651203 -0.730406,3.113879 -0.782791,3.250394 -0.08132,0.211914 -0.359144,0.24821 -1.899956,0.24821 -0.992589,0 -1.805335,-0.05063 -1.806102,-0.1125 z M 35.886138,10.9125 35.925,3.225 40.639803,3.1853247 c 3.672086,-0.030901 4.741431,0.00227 4.835203,0.15 0.154631,0.2436014 0.15745,2.381355 0.0035,2.6237524 -0.08409,0.1323759 -0.915516,0.195571 -2.960203,0.225 L 39.675,6.225 l 0,1.5 0,1.5 2.763831,0.040986 c 1.72854,0.025633 2.838249,0.1027477 2.9625,0.2058667 0.260474,0.2161742 0.275984,2.5408323 0.01867,2.7981473 -0.127259,0.127258 -1.007833,0.18 -3.005247,0.18 l -2.825249,0 0.04275,1.5375 0.04275,1.5375 2.763831,0.04099 c 1.72854,0.02563 2.838249,0.102747 2.9625,0.205866 0.205968,0.170938 0.287064,2.123259 0.107621,2.590879 C 45.428561,18.572229 44.857797,18.6 40.63259,18.6 l -4.785314,0 0.03886,-7.6875 z m 15.63432,7.5 c -0.03857,-0.103125 -0.08708,-2.8875 -0.107793,-6.1875 l -0.03766,-6 -1.419891,-0.043557 c -0.903783,-0.027725 -1.461805,-0.1095091 -1.535204,-0.225 -0.152764,-0.2403748 -0.148643,-2.3789315 0.0051,-2.6210566 0.09382,-0.147804 1.193062,-0.180879 4.985203,-0.15 L 58.275,3.225 l 0,1.425 0,1.425 -1.342189,0.043773 C 56.194606,6.142848 55.502732,6.2354881 55.39531,6.3246396 55.240797,6.4528746 55.2,7.7518678 55.2,12.543367 l 0,6.056633 -1.804707,0 c -1.306365,0 -1.824074,-0.05178 -1.874835,-0.1875 z M 59.25,18.452669 c 0,-0.222275 7.056057,-15.1862742 7.272349,-15.4226972 0.146049,-0.1596424 0.210377,-0.1565242 0.354543,0.017186 C 67.17007,3.4004147 74.217045,18.366448 74.147204,18.4875 74.111504,18.54938 73.309398,18.6 72.364748,18.6 l -1.717548,0 -0.483734,-0.98096 c -0.303294,-0.615049 -0.59652,-1.008664 -0.786101,-1.055229 -0.1663,-0.04085 -1.482706,-0.05504 -2.925344,-0.03154 l -2.62298,0.04273 -0.528905,0.975 -0.528904,0.975 -1.760616,0.04226 C 59.858655,18.59491 59.25,18.555295 59.25,18.452669 Z m 9,-5.11708 C 68.25,13.014448 66.872547,10.65 66.685461,10.65 c -0.222279,0 -1.61486,2.53108 -1.497266,2.721351 C 65.309817,13.568137 68.25,13.533796 68.25,13.335589 Z M 5.85,14.400745 C 2.67375,12.586774 0.075,11.018867 0.075,10.916508 0.075,10.814149 2.33625,9.3934941 5.1,7.7594977 10.452286,4.5950956 11.538349,3.9883491 11.650151,4.1001508 11.709598,4.1595978 5.9050402,8.9332538 4.1625,10.257979 3.853125,10.493174 3.6,10.766719 3.6,10.865856 c 0,0.09914 1.7803491,1.575962 3.9563314,3.281833 3.8183396,2.993403 4.4799426,3.552953 4.1995356,3.551748 C 11.68389,17.699128 9.02625,16.214717 5.85,14.400745 Z m 70.024481,3.110034 c 0.109714,-0.134965 1.98511,-1.646515 4.167544,-3.359001 2.182435,-1.712486 3.948919,-3.194667 3.92552,-3.293736 C 83.944144,10.758973 82.74375,9.7236229 81.3,8.5572642 76.83189,4.9476237 75.88987,4.1601297 75.958245,4.091755 c 0.09542,-0.095416 0.224674,-0.022738 6.281402,3.5318174 4.284629,2.5145526 5.472346,3.2750936 5.324999,3.4098076 -0.233022,0.213042 -11.18166,6.456743 -11.593797,6.611615 -0.259169,0.09739 -0.271117,0.08075 -0.09637,-0.134216 z M 83.625,5.5664935 C 81.706009,4.6808221 81.328957,2.183462 82.893585,0.72204276 83.790903,-0.11608461 85.252661,-0.26136307 86.345334,0.37898672 87.912464,1.2973857 88.254815,3.542915 87.027957,4.8564148 86.147838,5.798689 84.756945,6.08892 83.625,5.5664935 Z m 2.490318,-0.6542102 c 0.741801,-0.4915193 1.242229,-1.5767676 1.104651,-2.39559 -0.149556,-0.8901179 -1.096545,-1.83710621 -1.986662,-1.9866629 -0.818823,-0.1375777 -1.904071,0.36285093 -2.39559,1.1046521 -0.44175,0.6666876 -0.459601,1.8385737 -0.03853,2.5291885 0.661095,1.0842831 2.263453,1.4459169 3.316128,0.7484123 z M 83.618865,4.3131022 c -0.04471,-0.1165148 -0.06162,-0.814003 -0.03758,-1.5499736 L 83.625,1.425 84.504361,1.3795113 c 0.665531,-0.034427 0.948212,0.01682 1.1625,0.2107482 0.350462,0.317163 0.365526,0.9200812 0.03219,1.2884103 -0.235407,0.2601221 -0.23094,0.3128879 0.07215,0.8521618 C 86.309049,4.6877994 85.761663,4.8351587 85.142805,3.9 84.619456,3.1091671 84.185997,3.0883293 84.121555,3.850905 84.074079,4.4127069 83.765841,4.6961158 83.618865,4.3131022 Z M 85.112732,2.6089517 C 85.43832,2.484012 85.410743,2.1430637 85.059861,1.9552776 84.648172,1.7349483 84.30481,1.7629281 84.204245,2.025 c -0.20494,0.5340626 0.259889,0.8328422 0.908487,0.5839517 z"
       id="path3408"
       inkscape:connector-curvature="0" />
    <path
       style="fill:#688eac"
       d="m 13.503359,18.2625 c 0.0057,-0.570302 3.390592,-15.1164513 3.556153,-15.2820118 0.107193,-0.1071924 0.211582,-0.093371 0.336535,0.044559 0.09963,0.1099743 1.373148,2.2924531 2.830047,4.8499531 1.456898,2.5574997 2.751662,4.6688647 2.877252,4.6919207 0.158734,0.02914 1.064501,-1.42167 2.971107,-4.7589659 1.508517,-2.6404883 2.798738,-4.8354846 2.867157,-4.8777696 0.06842,-0.042285 0.189235,0.00675 0.268481,0.1089663 0.18858,0.2432441 3.643119,15.2843002 3.546363,15.4408552 -0.04079,0.066 -0.8103,0.119993 -1.710028,0.119993 -1.405875,0 -1.655097,-0.03691 -1.772624,-0.2625 -0.07521,-0.144375 -0.41953,-1.545 -0.76515,-3.1125 -0.765828,-3.473298 -0.737919,-3.375 -0.958261,-3.375 -0.09867,0 -1.047047,1.449565 -2.107512,3.221256 -1.060464,1.771692 -2.024828,3.301518 -2.143026,3.399615 -0.303734,0.252076 -0.342681,0.198861 -2.512787,-3.433371 -1.047417,-1.753125 -1.969668,-3.1875 -2.049444,-3.1875 -0.215744,0 -0.333824,0.402631 -1.033778,3.525 -0.351393,1.5675 -0.706774,2.934375 -0.789736,3.0375 -0.103991,0.129264 -0.657617,0.1875 -1.782474,0.1875 -1.59306,0 -1.631555,-0.008 -1.628275,-0.3375 z m 22.44874,0.239599 C 35.895945,18.445944 35.85,15.003786 35.85,10.852858 l 0,-7.5471424 0.3375,-0.082376 c 0.185625,-0.045307 2.32875,-0.063468 4.7625,-0.040358 l 4.425,0.042018 0,1.425 0,1.425 -2.925,0.075 -2.925,0.075 -0.04359,1.4225572 C 39.44439,8.8557502 39.47691,9.0987364 39.697579,9.2600569 39.884775,9.3969395 40.724526,9.45 42.703669,9.45 l 2.746331,0 0,1.425 0,1.425 -2.82,0 c -1.993334,0 -2.872766,0.05277 -3,0.18 -0.114096,0.114096 -0.18,0.688827 -0.18,1.569722 0,1.22046 0.03534,1.408635 0.290139,1.545001 0.169351,0.09063 1.420624,0.155277 3.005628,0.155277 l 2.71549,0 -0.04313,1.3875 -0.04313,1.3875 -4.660401,0.0396 c -2.563221,0.02178 -4.706346,-0.0063 -4.7625,-0.0625 z m 15.720253,-0.08466 C 51.632741,18.311598 51.583381,15.525 51.562665,12.225 l -0.03767,-6 -1.5,-0.075 -1.5,-0.075 -0.0437,-1.3373145 c -0.03165,-0.968691 0.0097,-1.3711881 0.15,-1.4602031 C 48.957976,3.070231 57.959793,3.1197927 58.17,3.33 58.423362,3.5833618 58.410747,5.7628509 58.15469,5.9753604 58.047269,6.0645114 57.355394,6.157152 56.61719,6.181227 L 55.275,6.225 l -0.075,6.15 -0.075,6.15 -1.690313,0.04244 c -1.269265,0.03187 -1.708252,-0.0055 -1.762335,-0.15 z M 59.4,18.363619 C 59.4,18.073129 66.265444,3.4601712 66.543452,3.1589286 66.653124,3.0400893 66.780205,2.980206 66.825855,3.0258548 66.969307,3.1693079 74.1,18.295962 74.1,18.456822 c 0,0.09744 -0.612099,0.137602 -1.685636,0.11059 L 70.728729,18.525 70.199811,17.55 69.670891,16.575 66.713923,16.534341 63.756954,16.49368 63.226591,17.546841 62.696229,18.6 l -1.648115,0 C 59.64786,18.6 59.4,18.564451 59.4,18.363619 Z m 8.625993,-4.863997 0.395523,-0.150377 -0.751362,-1.387123 c -0.41325,-0.762917 -0.844976,-1.406661 -0.959391,-1.430542 -0.130156,-0.02717 -0.484605,0.492902 -0.946895,1.389346 -0.625723,1.213364 -0.704413,1.455103 -0.513868,1.578624 0.296031,0.191902 2.271307,0.191954 2.775993,7.2e-5 z M 10.559749,16.987465 C 8.4573642,15.854293 0.01388881,11.013651 0.00742789,10.937824 -0.00367374,10.807531 11.102816,4.3028163 11.189086,4.3890856 11.229917,4.429917 9.5352183,5.8609923 7.4230884,7.5692526 4.7809828,9.7061496 3.5977197,10.753151 3.6305053,10.92509 c 0.026209,0.137451 1.6880249,1.539028 3.6929235,3.114617 4.4713162,3.51387 4.7390192,3.757704 3.2363202,2.947758 z m 65.763785,0.219425 c 0.09073,-0.109323 1.851393,-1.511222 3.912585,-3.11533 2.230888,-1.736173 3.750912,-3.02051 3.755751,-3.173404 0.0051,-0.159767 -1.440101,-1.4281521 -3.823533,-3.3558379 -2.107413,-1.7044464 -3.797783,-3.1328727 -3.756375,-3.1742808 0.04141,-0.041408 2.457532,1.3286928 5.369163,3.0446686 2.911632,1.7159759 5.443564,3.1985251 5.626519,3.2945531 0.30278,0.158923 -0.160806,0.456185 -5.163841,3.311169 -5.629362,3.212397 -6.218336,3.52761 -5.920269,3.168462 z M 84.203728,5.7114835 C 82.888823,5.385163 81.987468,4.2508852 81.986349,2.9211004 c -9e-4,-1.0336266 0.437676,-1.8294304 1.349099,-2.4481287 0.675138,-0.45830201 0.818497,-0.49705007 1.645933,-0.44487251 1.017682,0.0641743 1.602609,0.39315976 2.281463,1.28318331 0.359822,0.4717525 0.412156,0.6751702 0.412156,1.6020412 0,0.942358 -0.04921,1.1260038 -0.437838,1.6340538 -0.712798,0.9318306 -1.991721,1.4226279 -3.033434,1.164106 z M 85.955099,5.0625 C 86.884306,4.5934954 87.331605,3.7918873 87.255924,2.7312794 87.164962,1.4565367 86.345314,0.60835999 85.087624,0.48751197 82.87819,0.27521339 81.543133,2.7997509 82.992109,4.4500431 83.856052,5.4340195 84.82303,5.6338962 85.955098,5.0625 Z M 83.613546,4.1492413 C 83.571175,4.0388242 83.556418,3.4144492 83.580754,2.7617414 L 83.625,1.575 l 1.046388,0 c 1.005,0 1.052095,0.016229 1.190691,0.4103242 0.1199,0.3409344 0.0858,0.4725977 -0.201644,0.778567 L 85.314491,3.1321338 85.632245,3.646272 C 86.011029,4.2591559 86.02235,4.35 85.719941,4.35 85.59341,4.35 85.354049,4.1197781 85.188029,3.8383956 85.022009,3.5570133 84.77948,3.2858487 84.649076,3.2358077 84.303543,3.1032145 84,3.4224162 84,3.9183667 84,4.3606353 83.751609,4.5090283 83.613546,4.1492413 Z M 85.275,2.239208 c 0,-0.3101705 -0.08056,-0.3709424 -0.542943,-0.4095968 -0.44367,-0.03709 -0.557789,0.011388 -0.624147,0.2651387 -0.118383,0.4527023 0.248257,0.7543997 0.752808,0.6194621 C 85.168924,2.6317849 85.275,2.5101613 85.275,2.2392079 Z"
       id="path3406"
       inkscape:connector-curvature="0" />
    <path
       style="fill:#49749b"
       d="m 13.555074,18.1875 c 0.04141,-0.144375 0.827624,-3.568332 1.747141,-7.608793 0.919518,-4.0404613 1.70417,-7.3985863 1.743671,-7.4625001 C 17.085385,3.0522932 17.169417,3 17.232619,3 c 0.0632,0 1.357671,2.19375 2.876595,4.875 1.839341,3.246858 2.842568,4.875 3.003874,4.875 0.16075,0 1.16542,-1.615927 2.987691,-4.8054482 1.510024,-2.6429964 2.797923,-4.8378474 2.861995,-4.8774466 0.06407,-0.039599 0.155201,-0.00937 0.202505,0.067166 C 29.25181,3.2742833 32.7,18.09393 32.7,18.325816 c 0,0.213422 -3.298995,0.151634 -3.380592,-0.06332 -0.03915,-0.103125 -0.392276,-1.605 -0.78473,-3.3375 -0.591183,-2.60979 -0.758016,-3.15 -0.972816,-3.15 -0.177561,0 -0.886,1.039941 -2.248062,3.3 -1.146771,1.902826 -2.08221,3.3 -2.209426,3.3 -0.127875,0 -1.047591,-1.387329 -2.187705,-3.3 -1.081893,-1.815 -2.07372,-3.320714 -2.204058,-3.34603 -0.13034,-0.02532 -0.273633,0.07593 -0.318431,0.224999 -0.102966,0.34262 -1.44418,6.296681 -1.44418,6.411156 0,0.04668 -0.780798,0.08488 -1.735109,0.08488 -1.581165,0 -1.728427,-0.02329 -1.659817,-0.2625 z M 36,10.875 36,3.3 l 4.65,0 4.65,0 0,1.346761 0,1.3467611 -2.8875,0.040739 -2.8875,0.040739 0,1.65 0,1.65 2.8875,0.040739 2.8875,0.040739 0,1.3467609 0,1.346761 -2.5875,0.002 c -1.423125,0.0011 -2.741507,0.04331 -2.929737,0.09373 -0.333677,0.08939 -0.341181,0.133428 -0.3,1.760452 L 39.525,15.675 l 2.8875,0.04074 2.8875,0.04074 0,1.346759 0,1.346762 -4.65,0 -4.65,0 0,-7.575 z m 15.670458,7.3875 C 51.631887,18.159375 51.583381,15.375 51.562665,12.075 L 51.525,6.075 50.0625,6.0320682 48.6,5.9891364 48.6,4.6445682 48.6,3.3 l 4.8,0 4.8,0 0,1.35 0,1.35 -1.395,0 C 55.92,6 55.344193,6.065806 55.23,6.18 55.095956,6.3140447 55.05,7.9033334 55.05,12.405 l 0,6.045 -1.654707,0 c -1.186365,0 -1.674557,-0.05307 -1.724835,-0.1875 z m 7.774101,0 c 0.06649,-0.162643 3.972414,-8.4402036 6.334838,-13.425 0.439861,-0.928125 0.855065,-1.687146 0.922675,-1.6867132 0.118255,7.5e-4 7.252867,14.9516832 7.249551,15.1917882 -9e-4,0.06467 -0.726419,0.09842 -1.612281,0.075 L 70.728685,18.375 70.199814,17.4 69.670944,16.425 66.972972,16.38232 c -1.483884,-0.02347 -2.854547,-0.0041 -3.045916,0.04298 -0.24747,0.06093 -0.478958,0.365628 -0.80164,1.055182 L 62.671723,18.45 l -1.651911,0 c -1.26241,0 -1.633834,-0.04421 -1.575253,-0.1875 z M 68.4,13.370585 C 68.4,12.961043 66.909098,10.35 66.675249,10.35 c -0.258492,0 -1.773908,2.806839 -1.666515,3.086701 C 65.07265,13.603263 65.453158,13.65 66.745293,13.65 68.259365,13.65 68.4,13.626252 68.4,13.370585 Z M 7.4204379,15.101907 C 5.7729471,14.167956 3.5244636,12.885456 2.423808,12.251907 1.3231525,11.618358 0.32190247,11.1 0.19880805,11.1 0.07571362,11.1 -8.125005e-4,11.027438 0.02875,10.93875 c 0.0295625,-0.08869 0.0858125,-0.151496 0.125,-0.139574 0.0509506,0.0155 8.5243864,-4.9107396 10.256926,-5.9631163 0.07462,-0.045327 0.08805,-0.00535 0.02984,0.08884 -0.05821,0.094189 -1.6588072,1.4262324 -3.556879,2.9600975 -2.3482925,1.8976962 -3.4358201,2.8678738 -3.40341,3.0361658 0.026196,0.136026 1.5319875,1.415708 3.3462027,2.843739 C 10.009205,16.270174 10.648755,16.8 10.490081,16.8 10.449268,16.8 9.0679289,16.035858 7.4204379,15.101907 Z M 77.55,16.351699 c 0.28875,-0.252849 1.874196,-1.521669 3.523212,-2.819599 1.649017,-1.29793 3.019809,-2.472009 3.046203,-2.609065 0.03288,-0.17075 -1.038353,-1.1270852 -3.403049,-3.0380381 -1.898071,-1.533865 -3.49724,-2.8636011 -3.55371,-2.9549689 -0.114736,-0.1856472 -0.274584,-0.276674 5.701538,3.2467917 2.386558,1.4070916 4.36147,2.6251743 4.388695,2.7068503 0.04128,0.123848 -8.674106,5.215117 -9.852889,5.755765 -0.300065,0.137624 -0.27009,0.08013 0.15,-0.287735 z M 83.925,5.5167702 C 82.802394,5.1187548 82.046856,4.0685741 82.053294,2.9151414 c 0.0043,-0.7708557 0.449201,-1.7312144 0.990361,-2.13779874 0.23724,-0.17824272 0.525894,-0.40447761 0.641454,-0.5027442 0.11556,-0.0982666 0.55431,-0.20440435 0.975,-0.23586171 0.983255,-0.07352357 1.599705,0.25479689 2.468577,1.31476055 0.62927,0.7676661 0.651392,0.8291635 0.592275,1.646433 -0.03377,0.4669392 -0.143043,0.9448505 -0.242817,1.062025 -0.09977,0.1171746 -0.315937,0.3927755 -0.480361,0.6124464 C 86.371468,5.5111647 84.982869,5.8918332 83.925,5.5167702 Z M 86.332144,5.0065248 C 87.228456,4.4192391 87.633943,3.0749259 87.232131,2.0227952 86.62284,0.42739233 84.842947,-0.12843607 83.385943,0.82170068 82.70938,1.2628988 82.35,2.0057344 82.35,2.9629869 c 0,1.9799131 2.287594,3.1538499 3.982144,2.0435379 z M 85.348815,3.8493056 C 84.775704,2.8902344 84,2.7992205 84,3.6910483 84,3.9709717 83.9325,4.2 83.85,4.2 83.761111,4.2 83.7,3.6499999 83.7,2.85 l 0,-1.35 0.759861,0 c 0.417924,0 0.890424,0.069875 1.05,0.1552776 0.391761,0.2096639 0.372139,0.8552349 -0.03604,1.1857583 l -0.326179,0.2641234 0.33795,0.4746071 c 0.185873,0.2610337 0.30854,0.5579978 0.272596,0.6599201 -0.03595,0.1019225 -0.220164,-0.073749 -0.409373,-0.390381 z M 85.32,2.67 C 85.816648,2.1733512 85.173298,1.5112364 84.386061,1.7088204 84.085719,1.7842015 84,1.8994458 84,2.2278578 84,2.460036 84.045,2.6950001 84.1,2.75 c 0.167808,0.1678079 1.028641,0.1113599 1.22,-0.08 z"
       id="path3404"
       inkscape:connector-curvature="0" />
    <path
       style="fill:#326597"
       d="m 13.709251,18.0375 c 0.04371,-0.144375 0.825563,-3.531683 1.73746,-7.527351 0.911894,-3.9956676 1.685288,-7.2921492 1.718654,-7.3255143 0.08188,-0.081882 0.25377,0.2018155 2.069327,3.4153653 0.862284,1.52625 2.000355,3.54074 2.529048,4.476644 1.036299,1.83448 1.316022,2.121009 1.665502,1.706029 0.119352,-0.14172 1.42457,-2.374568 2.900483,-4.9618836 2.055676,-3.6036551 2.70951,-4.6388891 2.794747,-4.425 C 29.228038,3.6556717 32.55,18.026412 32.55,18.214554 c 0,0.04699 -0.701433,0.08545 -1.558739,0.08545 -1.491685,0 -1.562337,-0.01452 -1.642386,-0.3375 -0.04601,-0.185625 -0.3604,-1.58625 -0.698658,-3.1125 -0.780984,-3.523883 -0.715267,-3.326462 -1.088911,-3.271244 -0.284454,0.04204 -0.73803,0.670047 -1.76678,2.446244 -1.329652,2.295721 -2.594439,4.283032 -2.702079,4.245672 -0.07237,-0.02512 -0.994656,-1.489736 -2.049517,-3.2547 -1.898661,-3.176789 -2.285675,-3.683227 -2.585532,-3.38337 -0.08297,0.08297 -0.42999,1.363956 -0.771149,2.846629 -0.34116,1.482673 -0.682732,2.948894 -0.759051,3.258269 l -0.138762,0.5625 -1.579326,0 c -1.434394,0 -1.572034,-0.02409 -1.499859,-0.2625 z M 36.15,10.875 l 0,-7.425 4.575,0 4.575,0 0,1.2 0,1.2 -2.82,0 c -1.993334,0 -2.872766,0.052766 -3,0.18 -0.117555,0.1175555 -0.18,0.7364337 -0.18,1.7839516 0,1.3242206 0.04138,1.6198307 0.237269,1.6950001 C 39.667766,9.5590282 41.020495,9.6 42.543334,9.6 l 2.768798,0 -0.04357,1.2375 -0.04357,1.2375 -2.925,0.075 -2.925,0.075 -0.04265,1.712964 c -0.03161,1.269511 0.0072,1.744609 0.15,1.835204 0.105958,0.06723 1.458276,0.123272 3.005151,0.124535 L 45.3,15.9 l 0,1.2 0,1.2 -4.575,0 -4.575,0 0,-7.425 z m 15.6,1.291048 C 51.75,6.7110603 51.723736,6.0220185 51.512731,5.9410483 51.382234,5.8909717 50.673484,5.85 49.937731,5.85 l -1.337731,0 0,-1.2 0,-1.2 4.725,0 4.725,0 0,1.2 0,1.2 -1.419723,0 c -1.250119,0 -1.438272,0.034661 -1.575,0.2901388 C 54.955746,6.3261155 54.9,8.5609406 54.9,12.365139 l 0,5.934861 -1.575,0 -1.575,0 0,-6.133952 z m 8.504694,4.671452 c 0.377116,-0.804375 1.119958,-2.37375 1.65076,-3.4875 0.530804,-1.11375 1.815597,-3.8327505 2.855097,-6.0422235 1.039502,-2.2094729 1.939367,-3.9644728 1.999703,-3.9 C 66.820588,3.4722495 67.695877,5.28 68.70534,7.425 c 2.588703,5.500721 2.982952,6.335437 4.101813,8.684472 C 73.353219,17.255931 73.8,18.217806 73.8,18.246972 73.8,18.276136 73.123552,18.3 72.296782,18.3 l -1.503217,0 -0.458885,-0.960671 c -0.303355,-0.63507 -0.569173,-0.990252 -0.784284,-1.047951 -0.178968,-0.04801 -1.508502,-0.0882 -2.95452,-0.08933 -3.043501,-0.0024 -3.086877,0.0129 -3.608238,1.270784 L 62.644795,18.3 l -1.537884,0 -1.537884,0 0.685667,-1.4625 z M 68.509476,13.35 c 0.04266,-0.464032 -1.433689,-3.051482 -1.77907,-3.117996 -0.166823,-0.03213 -0.45758,0.320574 -0.92584,1.12308 -1.441912,2.471166 -1.442935,2.468442 0.905063,2.412201 1.761288,-0.04219 1.765451,-0.04315 1.799847,-0.417285 z m 10.012945,2.357748 c 0.246081,-0.183012 1.089831,-0.842457 1.875,-1.465434 0.785168,-0.622977 1.984454,-1.562022 2.665079,-2.086766 0.680625,-0.524744 1.236466,-1.061286 1.235203,-1.192314 C 84.293854,10.564129 84.510564,10.759679 80.55,7.5814611 79.43625,6.6877149 78.4575,5.8886352 78.375,5.8057287 c -0.267318,-0.2686355 1.233682,0.5843233 5.589128,3.1760796 1.25902,0.7491939 2.493101,1.4676497 2.742404,1.5965697 0.249302,0.128919 0.420781,0.286978 0.381064,0.351243 -0.116978,0.189272 -8.706263,5.124244 -8.903714,5.115627 -0.05988,-0.0026 0.09246,-0.154488 0.33854,-0.3375 z M 5.4,13.803697 C 3.37875,12.65084 1.428535,11.533004 1.0661888,11.319617 L 0.40737766,10.931641 0.91618882,10.590668 C 1.2880369,10.341479 6.9259652,7.0204515 8.9106762,5.8815066 9.4457913,5.5744258 8.4714669,6.4301098 6.2904828,8.1826476 3.3232585,10.566971 3.3,10.588379 3.3,10.935194 c 0,0.164615 1.0728349,1.098769 2.8539901,2.485066 2.5177583,1.959606 3.1405229,2.480012 2.9673624,2.479641 C 9.0958587,15.899846 7.42125,14.956554 5.4,13.803697 Z M 0.08140577,10.960365 C 0.03394113,10.883565 0.06370748,10.778332 0.14755321,10.726512 0.23139894,10.674693 0.3,10.737529 0.3,10.866147 c 0,0.263479 -0.0900082,0.302274 -0.21859423,0.09422 z M 87.46284,2.85 C 87.46844,2.0838387 87.5122,1.8206902 87.6,2.025 c 0.176982,0.4118577 0.176982,1.451141 0,1.725 -0.100625,0.1557065 -0.142866,-0.1214678 -0.13716,-0.9 z m -3.600998,0.0625 c 0.0072,-0.1747414 0.04274,-0.2102849 0.09062,-0.090625 0.04333,0.1082813 0.038,0.2376563 -0.01184,0.2875001 -0.04984,0.049844 -0.0853,-0.03875 -0.07878,-0.1968751 z M 84.075,0.14935469 c 0.397612,-0.17000491 1.29759,-0.17795642 1.556837,-0.013755 0.129886,0.0822685 -0.177033,0.13305537 -0.825,0.13651498 -0.701105,0.003743 -0.935678,-0.0356046 -0.731837,-0.12275995 z"
       id="path3402"
       inkscape:connector-curvature="0" />
  </g>
</svg>
